<svg width="292" height="272" viewBox="0 0 292 272" fill="none" xmlns="http://www.w3.org/2000/svg">
<path d="M155.968 145.913L155.968 106.198L88.198 106.198C90.7485 68.3048 122.447 43.1642 160.705 43.1642C209.529 43.1642 239.77 78.5068 239.77 135.711C239.77 192.915 210.257 228.257 162.527 228.257C126.82 228.257 100.95 209.311 93.6633 179.069H43.0178C51.7624 235.18 97.3069 271.251 162.891 271.251C241.956 271.251 291.144 217.327 291.144 135.711C291.144 54.0949 241.956 0.170159 167.263 0.170166C130.828 0.170169 100.95 14.3801 82.7326 40.2494L75.8099 5.99988L40.103 5.99988L40.103 106L88.198 106.198V145.913H155.968Z" fill="black"/>
<path d="M0.102966 106H40.103V146H0.102966V106Z" fill="black"/>
</svg>
