<svg width="67" height="72" viewBox="0 0 67 72" fill="none" xmlns="http://www.w3.org/2000/svg">
<path d="M30.696 38.864L30.696 28.4L12.84 28.4C13.512 18.416 21.864 11.792 31.944 11.792C44.808 11.792 52.776 21.104 52.776 36.176C52.776 51.248 45 60.56 32.424 60.56C23.016 60.56 16.2 55.568 14.28 47.6L0.935992 47.6C3.23999 62.384 15.24 71.888 32.52 71.888C53.352 71.888 66.312 57.68 66.312 36.176C66.312 14.672 53.352 0.464001 33.672 0.464003C24.072 0.464004 16.2 4.208 11.4 11.024L9.57599 2.00001L0.167993 2.00001L0.167996 38.864L30.696 38.864Z" fill="white"/>
</svg>
