<svg width="1398" height="158" viewBox="0 0 1398 158" fill="none" xmlns="http://www.w3.org/2000/svg">
<path d="M245.676 158.001C291.052 158.001 321.302 126.583 321.302 79.0315C321.302 31.4803 291.052 0.0625 245.676 0.0625C200.088 0.0625 169.838 31.4803 169.838 79.0315C169.838 126.583 200.088 158.001 245.676 158.001ZM245.676 132.739C217.983 132.739 199.875 112.36 199.875 79.0315C199.875 45.7032 217.983 25.3241 245.676 25.3241C273.37 25.3241 291.478 45.7032 291.478 79.0315C291.478 112.36 273.37 132.739 245.676 132.739Z" fill="black"/>
<path d="M407.063 158.001C452.438 158.001 482.688 126.583 482.688 79.0315C482.688 31.4803 452.438 0.0625 407.063 0.0625C361.474 0.0625 331.224 31.4803 331.224 79.0315C331.224 126.583 361.474 158.001 407.063 158.001ZM407.063 132.739C379.369 132.739 361.261 112.36 361.261 79.0315C361.261 45.7032 379.369 25.3241 407.063 25.3241C434.757 25.3241 452.864 45.7032 452.864 79.0315C452.864 112.36 434.757 132.739 407.063 132.739Z" fill="black"/>
<path d="M552.685 3.45902H494.741V154.604H552.685C602.108 154.604 628.736 125.097 628.736 79.0315C628.736 32.9663 602.108 3.45902 552.685 3.45902ZM552.259 129.979H523.5V28.0838H552.259C581.657 28.0838 598.912 45.4909 598.912 79.0315C598.912 112.572 581.657 129.979 552.259 129.979Z" fill="black"/>
<path d="M792.266 29.1452V3.45902H680.426V154.604H791.84V128.918H709.185V89.4334H784.384V64.8086H709.185V29.1452H792.266Z" fill="black"/>
<path d="M923.364 3.45902L898.014 75.4227C893.327 89.0088 888.428 104.718 884.593 117.879C880.759 105.355 876.072 90.4948 871.598 76.9087L845.396 3.45902H803.642V154.604H831.336V108.539C831.336 85.8246 831.123 61.1998 830.484 34.0277C833.892 45.2786 837.301 55.4682 841.774 68.4174L872.663 154.604H896.31L926.986 68.4174C931.673 55.2559 935.081 45.0664 938.49 33.6031C937.85 60.9875 937.637 85.6123 937.637 108.539V154.604H965.118V3.45902H923.364Z" fill="black"/>
<path d="M1043.94 3.45902H977.261V154.604H1006.02V101.746H1043.94C1078.88 101.746 1097.62 81.7912 1097.62 52.7085C1097.62 23.4136 1078.88 3.45902 1043.94 3.45902ZM1042.66 77.121H1006.02V28.0838H1042.66C1059.49 28.0838 1068.65 36.9996 1068.65 52.7085C1068.65 68.4174 1059.49 77.121 1042.66 77.121Z" fill="black"/>
<path d="M1109.63 154.604H1138.39V3.45902H1109.63V154.604Z" fill="black"/>
<path d="M1270.67 136.985L1269.39 114.483C1268.75 98.7738 1264.28 87.5228 1247.45 82.2158C1263.85 76.4842 1272.8 63.5349 1272.8 46.1278C1272.8 20.6539 1254.27 3.45902 1219.33 3.45902H1150.52V154.604H1179.28V95.3773H1216.77C1232.11 95.3773 1240.21 100.684 1241.06 120.002L1241.7 136.56C1241.91 143.99 1242.98 150.146 1245.75 154.604H1275.36C1272.37 150.146 1270.88 143.565 1270.67 136.985ZM1179.28 72.8754V27.0224H1216.56C1233.18 27.0224 1243.19 34.4522 1243.19 49.312C1243.19 64.8086 1233.18 72.8754 1217.63 72.8754H1179.28Z" fill="black"/>
<path d="M1397.64 29.1452V3.45902H1285.8V154.604H1397.22V128.918H1314.56V89.4334H1389.76V64.8086H1314.56V29.1452H1397.64Z" fill="black"/>
<path d="M84.9124 84.6894L60.4999 84.6894L60.4999 104.547L60.4999 124.405C38.4225 122.911 25.0487 104.334 25.0487 81.9135C25.0487 53.3008 45.6401 35.5781 78.9685 35.5781C112.297 35.5781 132.888 52.8738 132.888 80.8459C132.888 101.772 121.849 116.932 104.23 121.203L104.23 150.883C136.922 145.758 157.937 119.067 157.937 80.6324C157.937 34.2969 126.52 5.4707 78.9685 5.4707C31.4172 5.4707 -0.000581094 34.2969 -0.000583007 78.07C-0.000583941 99.4228 8.27845 116.932 23.3505 127.608L3.39593 127.608L3.39593 152.591L84.9124 152.591L84.9124 84.6894Z" fill="black"/>
</svg>
